<svg xmlns="http://www.w3.org/2000/svg" aria-hidden="true" focusable="false">
  <symbol id="icon-search" viewBox="0 0 24 24">
    <circle cx="11" cy="11" r="7"></circle>
    <line x1="16.65" y1="16.65" x2="21" y2="21"></line>
  </symbol>
  <symbol id="icon-user" viewBox="0 0 24 24">
    <circle cx="12" cy="8" r="4"></circle>
    <path d="M4 20c0-4.4 3.6-8 8-8s8 3.6 8 8"></path>
  </symbol>
  <symbol id="icon-home" viewBox="0 0 24 24">
    <path d="M3 11.5 12 4l9 7.5"></path>
    <path d="M6 10.5V20h12v-9.5"></path>
  </symbol>
  <symbol id="icon-sheet" viewBox="0 0 24 24">
    <rect x="5" y="3" width="14" height="18" rx="2"></rect>
    <line x1="8" y1="8" x2="16" y2="8"></line>
    <line x1="8" y1="12" x2="16" y2="12"></line>
    <line x1="8" y1="16" x2="13" y2="16"></line>
  </symbol>
  <symbol id="icon-chart" viewBox="0 0 24 24">
    <line x1="4" y1="20" x2="20" y2="20"></line>
    <polyline points="5,15 10,10 13,13 19,7"></polyline>
  </symbol>
  <symbol id="icon-sparkles" viewBox="0 0 24 24">
    <path d="m12 3 1.8 4.2L18 9l-4.2 1.8L12 15l-1.8-4.2L6 9l4.2-1.8Z"></path>
    <path d="m18.5 14 1 2.2 2.2 1-2.2 1-1 2.2-1-2.2-2.2-1 2.2-1Z"></path>
    <path d="m6 14.5.9 1.9 1.9.9-1.9.9-.9 1.9-.9-1.9-1.9-.9 1.9-.9Z"></path>
  </symbol>
  <symbol id="icon-table" viewBox="0 0 24 24">
    <rect x="4" y="5" width="16" height="14" rx="1"></rect>
    <line x1="4" y1="10" x2="20" y2="10"></line>
    <line x1="10" y1="5" x2="10" y2="19"></line>
    <line x1="15" y1="5" x2="15" y2="19"></line>
  </symbol>
  <symbol id="icon-filter" viewBox="0 0 24 24">
    <path d="M3 5h18l-7 8v6l-4-2v-4Z"></path>
  </symbol>
  <symbol id="icon-full-ui" viewBox="0 0 24 24">
    <rect x="3" y="4" width="18" height="16" rx="2"></rect>
    <line x1="8" y1="4" x2="8" y2="20"></line>
    <line x1="10.5" y1="9" x2="18.5" y2="9"></line>
    <line x1="10.5" y1="13" x2="14.5" y2="13"></line>
    <line x1="16" y1="13" x2="18.5" y2="13"></line>
  </symbol>
</svg>
