<?xml version="1.0" encoding="utf-8"?>
<!-- Generator: Adobe Illustrator 28.0.0, SVG Export Plug-In . SVG Version: 6.00 Build 0)  -->
<svg version="1.1" id="Layer_1" xmlns="http://www.w3.org/2000/svg" xmlns:xlink="http://www.w3.org/1999/xlink" x="0px" y="0px"
	 viewBox="0 0 221.8 162" style="enable-background:new 0 0 221.8 162;" xml:space="preserve">
<style type="text/css">
	.st0{fill:#FFFFFF;}
	.st1{fill:none;}
	.st2{fill:#009845;}
</style>
<g>
	<path class="st0" d="M39.7,46.8V28.3H47c1.4,0,2.6,0.3,3.6,0.8c1,0.5,1.7,1.3,2.3,2.2c0.5,0.9,0.8,2,0.8,3.3c0,1.2-0.3,2.3-0.8,3.3
		c-0.5,0.9-1.3,1.7-2.3,2.2s-2.2,0.8-3.6,0.8h-4.7v-3.1h4c0.8,0,1.4-0.1,1.9-0.4c0.5-0.3,0.9-0.6,1.1-1.1c0.2-0.5,0.4-1,0.4-1.6
		c0-0.6-0.1-1.2-0.4-1.6c-0.2-0.5-0.6-0.8-1.1-1.1c-0.5-0.3-1.1-0.4-1.9-0.4h-2.6v15.3H39.7z"/>
	<path class="st0" d="M62.2,47.1c-1.4,0-2.6-0.3-3.6-0.9s-1.8-1.4-2.4-2.5s-0.8-2.3-0.8-3.7c0-1.4,0.3-2.7,0.8-3.8s1.3-1.9,2.4-2.5
		c1-0.6,2.2-0.9,3.6-0.9c1.4,0,2.6,0.3,3.6,0.9c1,0.6,1.8,1.4,2.4,2.5s0.8,2.3,0.8,3.8c0,1.4-0.3,2.7-0.8,3.7s-1.3,1.9-2.4,2.5
		S63.6,47.1,62.2,47.1z M62.2,44.1c0.6,0,1.2-0.2,1.6-0.5c0.4-0.4,0.8-0.9,1-1.5c0.2-0.6,0.3-1.4,0.3-2.2c0-0.8-0.1-1.5-0.3-2.2
		c-0.2-0.6-0.5-1.1-1-1.5c-0.4-0.4-1-0.6-1.6-0.6c-0.6,0-1.2,0.2-1.6,0.6s-0.8,0.9-1,1.5c-0.2,0.6-0.3,1.4-0.3,2.2
		c0,0.8,0.1,1.5,0.3,2.2c0.2,0.6,0.5,1.1,1,1.5C61,43.9,61.5,44.1,62.2,44.1z"/>
	<path class="st0" d="M73.9,46.8l-3.8-13.9H74l2.2,9.3h0.1l2.2-9.3h3.8l2.3,9.3h0.1l2.1-9.3h3.9L87,46.8h-4.1l-2.4-8.7h-0.2L78,46.8
		H73.9z"/>
	<path class="st0" d="M98.8,47.1c-1.4,0-2.7-0.3-3.7-0.9c-1-0.6-1.8-1.4-2.4-2.5s-0.8-2.3-0.8-3.8c0-1.4,0.3-2.7,0.8-3.8
		c0.6-1.1,1.3-1.9,2.3-2.5c1-0.6,2.2-0.9,3.6-0.9c0.9,0,1.8,0.1,2.6,0.4c0.8,0.3,1.5,0.7,2.1,1.3c0.6,0.6,1.1,1.3,1.4,2.2
		s0.5,1.9,0.5,3.1v1.1H93.4v-2.4h8.1c0-0.6-0.1-1-0.4-1.5s-0.6-0.8-1-1c-0.4-0.2-0.9-0.4-1.5-0.4c-0.6,0-1.1,0.1-1.6,0.4
		s-0.8,0.6-1.1,1.1c-0.3,0.4-0.4,0.9-0.4,1.5v2.3c0,0.7,0.1,1.3,0.4,1.8s0.6,0.9,1.1,1.2c0.5,0.3,1,0.4,1.7,0.4
		c0.4,0,0.8-0.1,1.2-0.2c0.4-0.1,0.7-0.3,0.9-0.5c0.3-0.2,0.4-0.5,0.6-0.9l3.6,0.2c-0.2,0.9-0.6,1.6-1.1,2.2s-1.3,1.1-2.2,1.5
		C101,46.9,99.9,47.1,98.8,47.1z"/>
	<path class="st0" d="M107.7,46.8V32.9h3.7v2.4h0.1c0.3-0.9,0.7-1.5,1.3-2c0.6-0.4,1.3-0.7,2.1-0.7c0.2,0,0.4,0,0.6,0
		c0.2,0,0.4,0.1,0.6,0.1v3.4c-0.2-0.1-0.4-0.1-0.8-0.1c-0.3,0-0.6-0.1-0.9-0.1c-0.6,0-1.1,0.1-1.5,0.4s-0.8,0.6-1,1
		c-0.3,0.4-0.4,0.9-0.4,1.5v7.9H107.7z"/>
	<path class="st0" d="M123.8,47.1c-1.4,0-2.7-0.3-3.7-0.9c-1-0.6-1.8-1.4-2.4-2.5s-0.8-2.3-0.8-3.8c0-1.4,0.3-2.7,0.8-3.8
		c0.6-1.1,1.3-1.9,2.3-2.5c1-0.6,2.2-0.9,3.6-0.9c0.9,0,1.8,0.1,2.6,0.4c0.8,0.3,1.5,0.7,2.1,1.3c0.6,0.6,1.1,1.3,1.4,2.2
		c0.3,0.9,0.5,1.9,0.5,3.1v1.1h-11.7v-2.4h8.1c0-0.6-0.1-1-0.4-1.5s-0.6-0.8-1-1s-0.9-0.4-1.5-0.4c-0.6,0-1.1,0.1-1.6,0.4
		s-0.8,0.6-1.1,1.1s-0.4,0.9-0.4,1.5v2.3c0,0.7,0.1,1.3,0.4,1.8c0.3,0.5,0.6,0.9,1.1,1.2c0.5,0.3,1,0.4,1.7,0.4
		c0.4,0,0.8-0.1,1.2-0.2s0.7-0.3,0.9-0.5c0.3-0.2,0.4-0.5,0.6-0.9l3.6,0.2c-0.2,0.9-0.6,1.6-1.1,2.2s-1.3,1.1-2.2,1.5
		C125.9,46.9,124.9,47.1,123.8,47.1z"/>
	<path class="st0" d="M137.8,47c-1.1,0-2-0.3-2.9-0.8c-0.9-0.5-1.5-1.4-2-2.4c-0.5-1.1-0.7-2.4-0.7-3.9c0-1.6,0.3-2.9,0.8-4
		c0.5-1.1,1.2-1.9,2-2.4c0.9-0.5,1.8-0.8,2.8-0.8c0.8,0,1.4,0.1,1.9,0.4s0.9,0.6,1.3,1c0.3,0.4,0.6,0.8,0.7,1.1h0.1v-7h3.8v18.5
		h-3.8v-2.2h-0.2c-0.2,0.4-0.4,0.8-0.8,1.1c-0.3,0.4-0.8,0.7-1.3,0.9S138.5,47,137.8,47z M139,43.9c0.6,0,1.1-0.2,1.6-0.5
		c0.4-0.3,0.8-0.8,1-1.4c0.2-0.6,0.3-1.3,0.3-2.2c0-0.8-0.1-1.5-0.3-2.2c-0.2-0.6-0.6-1.1-1-1.4c-0.4-0.3-1-0.5-1.6-0.5
		c-0.6,0-1.2,0.2-1.6,0.5c-0.4,0.3-0.8,0.8-1,1.4c-0.2,0.6-0.3,1.3-0.3,2.1c0,0.8,0.1,1.5,0.3,2.1c0.2,0.6,0.6,1.1,1,1.4
		C137.8,43.8,138.4,43.9,139,43.9z"/>
	<path class="st0" d="M154.8,46.8V28.3h3.9v7h0.1c0.2-0.4,0.4-0.8,0.7-1.1s0.7-0.7,1.3-1s1.2-0.4,1.9-0.4c1,0,1.9,0.3,2.8,0.8
		c0.9,0.5,1.5,1.3,2.1,2.4c0.5,1.1,0.8,2.4,0.8,4c0,1.5-0.2,2.9-0.7,3.9s-1.2,1.9-2,2.4c-0.9,0.5-1.8,0.8-2.9,0.8
		c-0.7,0-1.4-0.1-1.9-0.4s-0.9-0.6-1.3-0.9c-0.3-0.4-0.6-0.8-0.8-1.1h-0.2v2.2H154.8z M158.6,39.8c0,0.8,0.1,1.5,0.3,2.2
		c0.2,0.6,0.6,1.1,1,1.4c0.4,0.3,1,0.5,1.6,0.5c0.6,0,1.2-0.2,1.6-0.5c0.4-0.3,0.8-0.8,1-1.4c0.2-0.6,0.3-1.3,0.3-2.1
		c0-0.8-0.1-1.5-0.3-2.1s-0.6-1.1-1-1.4c-0.4-0.3-1-0.5-1.6-0.5c-0.6,0-1.2,0.2-1.6,0.5c-0.4,0.3-0.8,0.8-1,1.4
		C158.7,38.3,158.6,39,158.6,39.8z"/>
	<path class="st0" d="M172.8,52c-0.5,0-0.9,0-1.4-0.1s-0.8-0.2-1.1-0.3l0.9-2.9c0.5,0.1,0.9,0.2,1.2,0.2c0.4,0,0.7-0.1,0.9-0.3
		c0.3-0.2,0.5-0.5,0.7-0.9l0.2-0.6l-5-14.3h4.1l2.9,10.2h0.1l2.9-10.2h4.1L178,48.3c-0.3,0.7-0.6,1.4-1.1,2s-1,1-1.7,1.3
		C174.6,51.8,173.8,52,172.8,52z"/>
</g>
<g>
	<line class="st1" x1="75.3" y1="106.5" x2="75.4" y2="106.5"/>
	<rect x="114.5" y="67.3" class="st0" width="7" height="67.1"/>
	<rect x="133.6" y="87.5" class="st0" width="7" height="46.9"/>
	<circle class="st0" cx="137.1" cy="72.1" r="4.8"/>
	<path class="st0" d="M84.4,122.9c-4.8,3.8-10.8,6.1-17.4,6.1c-15.5,0-28-12.5-28-28c0-6.6,2.3-12.7,6.2-17.5l-5.1-5.2
		c-5.2,6.1-8.3,14.1-8.3,22.7c0,19.5,15.8,35.2,35.2,35.2c8.6,0,16.4-3.1,22.5-8.1L84.4,122.9z"/>
	<path class="st2" d="M95.3,134.4h9.7L94.5,123c4.8-6,7.7-13.7,7.7-22c0-19.5-15.8-35.2-35.2-35.2c-10.8,0-20.5,4.9-26.9,12.5
		l5.1,5.2C50.4,77.1,58.2,73,67,73c15.5,0,28,12.5,28,28c0,8.9-4.1,16.8-10.6,21.9l4.8,4.8l0.2,0.2c0,0,0,0,0,0l0.1,0.1L95.3,134.4z
		"/>
	<polygon class="st0" points="189.6,87.5 179.9,87.5 159.7,105.2 159.7,67.3 152.7,67.3 152.7,134.4 159.7,134.4 159.7,112.7 
		180.4,134.4 190.1,134.4 165.4,109.3 	"/>
</g>
</svg>
